<svg width="29" height="29" viewBox="0 0 29 29" fill="none" xmlns="http://www.w3.org/2000/svg">
<path d="M14.5003 28.9997C22.5081 28.9997 28.9998 22.508 28.9998 14.5002C28.9998 6.49236 22.5081 0.000732422 14.5003 0.000732422C6.49248 0.000732422 0.000854492 6.49236 0.000854492 14.5002C0.000854492 22.508 6.49248 28.9997 14.5003 28.9997Z" fill="white"/>
<path d="M28.1715 9.66528H19.2374C19.6256 12.7627 19.6278 16.1757 19.245 19.2769H28.1905C28.7127 17.7808 28.9997 16.1741 28.9997 14.5001C29 12.8039 28.7062 11.1775 28.1715 9.66528Z" fill="#2B479D"/>
<path d="M19.2375 9.66552H28.1712C28.1699 9.66093 28.1685 9.65708 28.1667 9.65291C26.311 4.42037 21.5375 0.570599 15.802 0.0595703C18.0218 1.27619 18.6701 5.13079 19.2375 9.66552Z" fill="#EFECEC"/>
<path d="M15.8024 28.9398C21.548 28.4279 26.3282 24.5648 28.1768 19.3183C28.1816 19.3042 28.1857 19.2904 28.1907 19.2771H19.2451C18.6821 23.8363 18.0309 27.7181 15.8024 28.9398Z" fill="#E63026"/>
<path d="M0 14.5001C0 16.1744 0.287564 17.7808 0.809307 19.2769H19.9913C20.3745 16.1754 20.3718 12.7627 19.9842 9.66528H0.828592C0.293748 11.1776 0 12.804 0 14.5001Z" fill="#3757A6"/>
<path d="M0.833083 9.65285C0.831736 9.65696 0.830328 9.66087 0.828491 9.66547H19.9841C19.4163 5.13067 18.0216 1.27613 15.8022 0.0595087C15.3728 0.0214893 14.9389 6.97811e-10 14.4997 6.97811e-10C8.19197 -6.12223e-05 2.82791 4.02848 0.833083 9.65285Z" fill="#EFEFEF"/>
<path d="M19.9912 19.2771H0.809204C0.814041 19.2906 0.818573 19.3044 0.823163 19.3183C2.81004 24.957 8.18181 28.9999 14.4996 28.9999C14.9389 28.9999 15.3729 28.9783 15.8021 28.9399C18.031 27.7183 19.4282 23.8365 19.9912 19.2771Z" fill="#E73B36"/>
</svg>
