<svg width="26" height="22" viewBox="0 0 26 22" fill="none" xmlns="http://www.w3.org/2000/svg">
<path fill-rule="evenodd" clip-rule="evenodd" d="M0.5 11C0.5 10.5856 0.66462 10.1882 0.957645 9.89514C1.25067 9.60211 1.6481 9.4375 2.0625 9.4375L20.1656 9.43749L13.4563 2.73124C13.311 2.58597 13.1957 2.4135 13.1171 2.22369C13.0385 2.03388 12.998 1.83044 12.998 1.625C12.998 1.41955 13.0385 1.21611 13.1171 1.0263C13.1957 0.836486 13.311 0.66402 13.4563 0.518745C13.6015 0.37347 13.774 0.258232 13.9638 0.179609C14.1536 0.100988 14.3571 0.0605215 14.5625 0.0605215C14.768 0.0605215 14.9714 0.100988 15.1612 0.179609C15.351 0.258231 15.5235 0.37347 15.6688 0.518745L25.0438 9.89374C25.1893 10.0389 25.3047 10.2113 25.3835 10.4011C25.4622 10.591 25.5028 10.7945 25.5028 11C25.5028 11.2055 25.4622 11.409 25.3835 11.5988C25.3047 11.7887 25.1893 11.9611 25.0438 12.1062L15.6688 21.4812C15.5235 21.6265 15.351 21.7418 15.1612 21.8204C14.9714 21.899 14.768 21.9395 14.5625 21.9395C14.3571 21.9395 14.1536 21.899 13.9638 21.8204C13.774 21.7418 13.6015 21.6265 13.4563 21.4812C13.1629 21.1878 12.998 20.7899 12.998 20.375C12.998 20.1695 13.0385 19.9661 13.1171 19.7763C13.1957 19.5865 13.311 19.414 13.4563 19.2687L20.1656 12.5625L2.0625 12.5625C1.6481 12.5625 1.25067 12.3979 0.957646 12.1048C0.66462 11.8118 0.5 11.4144 0.5 11Z" fill="#FF6C4F"/>
</svg>
