<svg width="14" height="13" viewBox="0 0 14 13" fill="none" xmlns="http://www.w3.org/2000/svg">
<path d="M5.488 0.383998L3.376 9.264L2.992 7.2C3.76 7.2 4.384 7.44 4.864 7.92C5.344 8.368 5.584 8.976 5.584 9.744C5.584 10.512 5.344 11.136 4.864 11.616C4.384 12.096 3.792 12.336 3.088 12.336C2.32 12.336 1.696 12.096 1.216 11.616C0.768 11.104 0.544 10.48 0.544 9.744C0.544 9.456 0.56 9.2 0.592 8.976C0.624 8.752 0.688 8.48 0.784 8.16C0.88 7.84 1.008 7.456 1.168 7.008L3.184 0.383998H5.488ZM13.648 0.383998L11.536 9.264L11.152 7.2C11.92 7.2 12.544 7.44 13.024 7.92C13.504 8.368 13.744 8.976 13.744 9.744C13.744 10.512 13.504 11.136 13.024 11.616C12.544 12.096 11.952 12.336 11.248 12.336C10.48 12.336 9.856 12.096 9.376 11.616C8.928 11.104 8.704 10.48 8.704 9.744C8.704 9.456 8.72 9.2 8.752 8.976C8.784 8.752 8.848 8.48 8.944 8.16C9.04 7.84 9.168 7.456 9.328 7.008L11.344 0.383998H13.648Z" fill="#293757"/>
</svg>
