<svg width="14" height="13" viewBox="0 0 14 13" fill="none" xmlns="http://www.w3.org/2000/svg">
<path d="M0.688 12.096L2.8 3.264L3.184 5.28C2.448 5.28 1.824 5.056 1.312 4.608C0.832 4.128 0.592 3.504 0.592 2.736C0.592 1.968 0.832 1.344 1.312 0.863997C1.824 0.383998 2.432 0.143998 3.136 0.143998C3.872 0.143998 4.464 0.399999 4.912 0.912C5.392 1.392 5.632 2 5.632 2.736C5.632 2.992 5.616 3.248 5.584 3.504C5.552 3.76 5.488 4.048 5.392 4.368C5.328 4.656 5.216 5.024 5.056 5.472L2.992 12.096H0.688ZM8.848 12.096L10.96 3.264L11.344 5.28C10.608 5.28 9.984 5.056 9.472 4.608C8.992 4.128 8.752 3.504 8.752 2.736C8.752 1.968 8.992 1.344 9.472 0.863997C9.984 0.383998 10.592 0.143998 11.296 0.143998C12.032 0.143998 12.624 0.399999 13.072 0.912C13.552 1.392 13.792 2 13.792 2.736C13.792 2.992 13.776 3.248 13.744 3.504C13.712 3.76 13.648 4.048 13.552 4.368C13.488 4.656 13.376 5.024 13.216 5.472L11.152 12.096H8.848Z" fill="#293757"/>
</svg>
